# Blender 4.1.0
# www.blender.org
o Cube
v 0.820000 3.067931 -5.443147
v 0.820000 2.901773 -5.142351
v 1.000000 3.175556 -5.110970
v 0.820000 -0.300667 -1.034097
v 0.820000 -0.355608 -0.701497
v 1.000000 -0.199432 -0.839817
v 0.820000 5.602607 -2.707877
v 1.000000 5.408580 -2.690043
v 0.820000 5.415340 -2.417349
v 0.820000 0.455210 2.689509
v 1.000000 0.439737 2.399251
v 0.820000 0.306149 2.652037
v 0.820000 4.656555 -25.730030
v 1.000000 4.830855 -25.735899
v 0.820000 4.836450 -25.916197
v 0.820000 4.656555 -18.920593
v 1.000000 4.830627 -18.909828
v 0.820000 3.722630 -13.475334
v 1.000000 3.874768 -13.341012
v 0.820000 3.722630 -8.639618
v 1.000000 3.872490 -8.497856
v 1.000000 6.416491 -6.091337
v 0.820000 6.567168 -5.948802
v 1.000000 6.615172 -10.921523
v 0.820000 6.770350 -10.784517
v 1.000000 6.612543 -18.799622
v 0.820000 6.770350 -18.789862
v 0.820000 6.770350 -25.802481
v 0.820000 6.590455 -25.976315
v 1.000000 6.611689 -25.796938
v 1.000000 1.137816 -3.162870
v 0.820000 1.036225 -3.356904
v 0.820000 2.742948 -0.097179
v 1.000000 2.643805 -0.286536
v -1.787595 6.770350 -18.789862
v -1.967595 6.612543 -18.799622
v -1.787595 6.770350 -25.802481
v -1.967595 6.611689 -25.796938
v -1.787595 6.590455 -25.976315
v -1.787595 6.770350 -10.784517
v -1.967595 6.615172 -10.921523
v -1.787595 1.036225 -3.356904
v -1.967595 1.137816 -3.162870
v -1.787595 -0.300667 -1.034097
v -1.967595 -0.199432 -0.839817
v -1.787595 -0.355608 -0.701497
v -1.787595 6.567168 -5.948802
v -1.967595 6.416491 -6.091337
v -1.967595 2.643805 -0.286536
v -1.787595 2.742948 -0.097179
v -1.787595 0.455210 2.689509
v -1.787595 0.306149 2.652037
v -1.967595 0.439737 2.399251
v -1.787595 5.602607 -2.707877
v -1.787595 5.415340 -2.417349
v -1.967595 5.408580 -2.690043
v -1.967595 4.830627 -18.909828
v -1.787595 4.656555 -18.920593
v -1.787595 4.656555 -25.730030
v -1.787595 4.836450 -25.916197
v -1.967595 4.830855 -25.735899
v -1.787595 3.067931 -5.443147
v -1.967595 3.175556 -5.110970
v -1.787595 2.901773 -5.142351
v -1.967595 3.874768 -13.341012
v -1.787595 3.722630 -13.475334
v -1.967595 3.872490 -8.497856
v -1.787595 3.722630 -8.639618
vn -0.0000 0.0343 0.9994
vn -0.0000 1.0000 -0.0000
vn -0.0000 -0.9991 -0.0420
vn -0.0000 0.9797 0.2007
vn -0.0000 0.6914 0.7224
vn -0.0000 0.9811 -0.1936
vn 1.0000 -0.0000 -0.0000
vn -0.0000 -1.0000 -0.0000
vn -0.0000 0.9856 0.1690
vn -0.0000 -0.9585 -0.2853
vn -1.0000 -0.0000 -0.0000
vn -0.0000 -0.6556 -0.7551
vn -0.0000 -0.7729 -0.6345
vn -0.0000 0.8667 0.4988
vn -0.8168 0.5050 0.2790
vn -0.5900 0.7966 0.1316
vn -0.6487 -0.6397 -0.4123
vn -0.8392 0.1326 -0.5275
vn -0.5587 0.5964 0.5763
vn -0.5358 -0.5867 0.6072
vn 0.5358 -0.5867 0.6072
vn 0.5900 0.7966 0.1316
vn 0.8392 0.1326 -0.5275
vn 0.6487 -0.6397 -0.4123
vn 0.5587 0.5964 0.5763
vn 0.8168 0.5050 0.2790
vn -0.6602 -0.7511 -0.0000
vn -0.6561 -0.7547 0.0001
vn -0.7163 0.6048 0.3481
vn -0.6611 -0.7496 -0.0312
vn -0.7373 -0.5222 -0.4286
vn -0.7129 -0.6723 -0.1996
vn -0.6954 0.7186 -0.0000
vn -0.6930 0.7106 0.1219
vn -0.6428 0.7661 0.0002
vn -0.6945 0.7047 0.1447
vn -0.7071 0.6937 -0.1369
vn -0.7611 0.4484 0.4688
vn -0.7579 -0.4278 -0.4925
vn -0.7071 0.0242 0.7067
vn 0.6602 -0.7511 -0.0000
vn 0.6561 -0.7547 0.0001
vn 0.7163 0.6048 0.3481
vn 0.6611 -0.7496 -0.0312
vn 0.7373 -0.5222 -0.4286
vn 0.7129 -0.6723 -0.1996
vn 0.6954 0.7186 -0.0000
vn 0.6930 0.7106 0.1219
vn 0.6428 0.7661 0.0002
vn 0.6945 0.7047 0.1447
vn 0.7071 0.6937 -0.1369
vn 0.7611 0.4484 0.4688
vn 0.7579 -0.4278 -0.4925
vn 0.7071 0.0242 0.7067
vn -0.0000 -0.6949 0.7191
vn -0.0000 0.7191 0.6949
vn -0.0000 0.9866 0.1630
vn -0.0000 0.2438 -0.9698
vn -0.0000 0.8753 0.4835
vn -0.0000 -0.8405 -0.5418
vt 0.000000 0.000000
vt 0.592323 0.473859
vt 0.592323 0.473859
vt 0.500000 0.500000
vt 0.616855 0.500000
vt 0.616854 0.500000
vt 0.375000 0.738090
vt 0.375000 0.511910
vt 0.375000 0.738090
vt 0.384827 0.516656
vt 0.500000 0.514881
vt 0.500000 0.735478
vt 0.382889 0.733365
vt 0.625000 0.735842
vt 0.625000 0.514263
vt 0.625000 0.514263
vt 0.593411 0.712094
vt 0.593411 0.712094
vt 0.618950 0.750000
vt 0.500000 0.750000
vt 0.618950 0.750000
vt 0.380944 0.750000
vt 0.380944 0.750000
vt 0.384827 0.516656
vt 0.382889 0.733365
vt 0.382867 0.500000
vt 0.382867 0.500000
s 0
f 15/1/1 29/1/1 39/1/1 60/1/1
f 20/1/2 18/1/2 66/1/2 68/1/2
f 25/1/3 23/1/3 47/1/3 40/1/3
f 1/2/4 20/1/4 68/1/4 62/3/4
f 32/4/5 2/5/5 64/6/5 42/4/5
f 12/7/6 5/8/6 46/8/6 52/9/6
f 36/1/7 41/1/7 65/1/7 57/1/7
f 41/1/7 48/1/7 67/1/7 65/1/7
f 45/10/7 43/11/7 49/12/7 53/13/7
f 48/1/7 56/14/7 63/15/7 67/1/7
f 43/11/7 63/16/7 56/14/7 49/12/7
f 27/1/8 25/1/8 40/1/8 35/1/8
f 18/1/9 16/1/9 58/1/9 66/1/9
f 23/1/10 7/17/10 54/18/10 47/1/10
f 16/1/2 13/1/2 59/1/2 58/1/2
f 22/1/11 21/1/11 3/16/11 8/14/11
f 9/19/12 33/20/12 50/20/12 55/21/12
f 33/20/13 10/22/13 51/23/13 50/20/13
f 30/1/11 14/1/11 17/1/11 26/1/11
f 38/1/7 36/1/7 57/1/7 61/1/7
f 26/1/11 17/1/11 19/1/11 24/1/11
f 28/1/8 27/1/8 35/1/8 37/1/8
f 24/1/11 19/1/11 21/1/11 22/1/11
f 6/24/11 11/25/11 34/12/11 31/11/11
f 4/26/14 32/4/14 42/4/14 44/27/14
f 1/2/15 2/5/15 3/16/15
f 4/26/16 5/8/16 6/24/16
f 7/17/17 8/14/17 9/19/17
f 10/22/18 11/25/18 12/7/18
f 13/1/19 14/1/19 15/1/19
f 28/1/20 29/1/20 30/1/20
f 37/1/21 38/1/21 39/1/21
f 44/27/22 45/10/22 46/8/22
f 51/23/23 52/9/23 53/13/23
f 54/18/24 55/21/24 56/14/24
f 59/1/25 60/1/25 61/1/25
f 62/3/26 63/16/26 64/6/26
f 27/1/27 28/1/27 30/1/27 26/1/27
f 25/1/28 27/1/28 26/1/28 24/1/28
f 32/4/29 4/26/29 6/24/29 31/11/29
f 23/1/30 25/1/30 24/1/30 22/1/30
f 34/12/31 11/25/31 10/22/31 33/20/31
f 7/17/32 23/1/32 22/1/32 8/14/32
f 17/1/33 14/1/33 13/1/33 16/1/33
f 19/1/34 17/1/34 16/1/34 18/1/34
f 21/1/35 19/1/35 18/1/35 20/1/35
f 3/16/36 21/1/36 20/1/36 1/2/36
f 11/25/37 6/24/37 5/8/37 12/7/37
f 2/5/38 32/4/38 31/11/38 3/15/38
f 8/14/39 34/12/39 33/20/39 9/19/39
f 29/1/40 15/1/40 14/1/40 30/1/40
f 36/1/41 38/1/41 37/1/41 35/1/41
f 41/1/42 36/1/42 35/1/42 40/1/42
f 43/11/43 45/10/43 44/27/43 42/4/43
f 48/1/44 41/1/44 40/1/44 47/1/44
f 50/20/45 51/23/45 53/13/45 49/12/45
f 56/14/46 48/1/46 47/1/46 54/18/46
f 58/1/47 59/1/47 61/1/47 57/1/47
f 66/1/48 58/1/48 57/1/48 65/1/48
f 68/1/49 66/1/49 65/1/49 67/1/49
f 62/3/50 68/1/50 67/1/50 63/15/50
f 52/9/51 46/8/51 45/10/51 53/13/51
f 63/16/52 43/11/52 42/4/52 64/6/52
f 55/21/53 50/20/53 49/12/53 56/14/53
f 38/1/54 61/1/54 60/1/54 39/1/54
f 28/1/55 37/1/55 39/1/55 29/1/55
f 59/1/56 13/1/56 15/1/56 60/1/56
f 4/26/57 44/27/57 46/8/57 5/8/57
f 51/23/58 10/22/58 12/7/58 52/9/58
f 1/2/59 62/3/59 64/6/59 2/5/59
f 9/19/60 55/21/60 54/18/60 7/17/60
f 31/11/11 34/12/11 8/14/11 3/15/11
o Cube.001
v 10.238564 6.374879 -22.088411
v 10.238564 7.242507 -22.160862
v -11.206159 7.242507 -22.160862
v -11.206159 6.374879 -22.088411
v 7.175033 7.257612 -23.484659
v 4.111501 6.828228 -25.682554
v 1.047969 6.770350 -26.319885
v -2.015563 6.770350 -26.319885
v -5.079095 6.828228 -25.682554
v -8.142627 7.257612 -23.484659
v -8.142627 5.930456 -23.412209
v -5.079095 4.771246 -25.610104
v -2.015563 4.656555 -26.247435
v 1.047969 4.656555 -26.247435
v 4.111501 4.771246 -25.610104
v 7.175033 5.930456 -23.412209
v 10.238564 7.351667 -22.160862
v -11.206159 7.351667 -22.160862
v 10.238564 7.242507 -22.006804
v -11.206159 7.242507 -22.006804
v 10.238564 7.351667 -22.006804
v -11.206159 7.351667 -22.006804
vn 0.3995 0.0604 0.9147
vn -0.3995 0.0604 0.9147
vn -0.5885 0.0346 0.8078
vn -0.2045 0.0340 0.9783
vn -0.0000 0.0343 0.9994
vn 0.2045 0.0340 0.9783
vn 0.5885 0.0346 0.8078
vn -0.0000 -0.0000 1.0000
vn -0.0000 -0.0000 -1.0000
vn -1.0000 -0.0000 -0.0000
vn -0.0000 -1.0000 -0.0000
vn 1.0000 -0.0000 -0.0000
vn -0.0000 1.0000 -0.0000
vt 0.000000 0.000000
s 0
f 79/28/61 78/28/61 71/28/61 72/28/61
f 69/28/62 70/28/62 73/28/62 84/28/62
f 84/28/63 73/28/63 74/28/63 83/28/63
f 83/28/64 74/28/64 75/28/64 82/28/64
f 82/28/65 75/28/65 76/28/65 81/28/65
f 81/28/66 76/28/66 77/28/66 80/28/66
f 80/28/67 77/28/67 78/28/67 79/28/67
f 70/28/68 85/28/68 86/28/68 71/28/68
f 87/28/69 88/28/69 90/28/69 89/28/69
f 85/28/70 70/28/70 87/28/70 89/28/70
f 86/28/71 85/28/71 89/28/71 90/28/71
f 71/28/72 86/28/72 90/28/72 88/28/72
f 70/28/73 71/28/73 88/28/73 87/28/73
