# Blender 4.1.0
# www.blender.org
o Cube.001
v -2.875913 -0.000933 2.914098
v -2.090272 11.464216 2.610530
v -2.521587 -0.000933 -2.514953
v -1.543775 11.014633 -1.603926
v 2.483723 -0.000933 2.595853
v 2.337541 10.644420 2.986239
v 2.612699 -0.000933 -3.110347
v 1.384211 10.904606 -1.804971
v -2.845094 6.532478 3.169770
v -2.162008 5.925266 -2.118512
v 2.092272 5.879204 -2.081281
v 3.066593 5.891232 3.026056
v -0.013911 -0.000933 -3.012709
v 0.112699 11.212838 -2.259060
v -0.150622 -0.000933 2.643324
v 0.064120 11.383217 3.482148
v 0.044022 5.595235 3.592975
v 0.362710 6.124999 -2.829200
v -3.437303 -0.000933 -0.185690
v -2.393207 11.970806 0.299507
v 3.294323 -0.000933 -0.348114
v 2.349430 11.302992 -0.226477
v 2.911541 6.299679 -0.109447
v -2.764609 5.676103 0.068250
v 0.660715 12.152596 0.740816
v -2.661146 8.887543 2.648213
v -2.239777 9.489029 -1.910677
v 2.029817 9.266649 -2.331012
v 3.382531 8.888989 3.199755
v -0.004151 9.015741 3.024329
v -0.373768 8.910653 -2.535599
v 3.364710 8.343445 -0.126907
v -2.478052 9.321455 -0.498017
v -2.335314 2.736616 -2.303750
v 3.112845 3.170824 -3.310901
v 3.057372 2.893340 3.100977
v -3.515105 2.794485 3.090689
v -0.046296 2.746957 -2.640710
v -0.001362 3.000241 2.999806
v -2.432777 3.502640 -0.587053
v 3.008455 3.000000 0.012479
vn -0.8968 0.2620 -0.3565
vn 0.9162 0.4007 0.0061
vn 0.9949 -0.0321 -0.0953
vn 0.9994 0.0129 -0.0317
vn -0.9843 -0.0015 -0.1763
vn -0.1707 0.1089 -0.9793
vn -0.1343 0.0393 -0.9902
vn -0.0120 -0.1432 0.9896
vn 0.2866 0.8899 -0.3548
vn -0.2503 -0.0498 0.9669
vn 0.0593 0.0588 0.9965
vn -0.1134 0.1869 0.9758
vn -0.2878 0.0387 -0.9569
vn -0.0792 0.9676 0.2398
vn 0.4388 0.8626 0.2517
vn 0.0095 0.1695 -0.9855
vn 0.2235 0.0359 -0.9740
vn 0.0605 -0.0863 0.9944
vn 0.8811 -0.0863 -0.4649
vn 0.8238 0.3397 -0.4538
vn 0.9684 0.2060 -0.1405
vn -0.9965 0.0697 -0.0467
vn -0.2134 0.0184 -0.9768
vn -0.3093 0.2359 -0.9212
vn 0.1702 0.2033 -0.9642
vn 0.9884 -0.1501 -0.0233
vn -0.9741 0.0170 -0.2256
vn -0.9921 0.1183 0.0422
vn -0.9960 0.0552 -0.0708
vn -0.9824 0.0773 -0.1702
vn 0.0789 -0.0927 0.9926
vn -0.0628 -0.0983 0.9932
vn -0.9473 0.1725 -0.2699
vn 0.9901 -0.0665 0.1238
vn -0.0913 0.9269 -0.3640
vn 0.0492 -0.0475 0.9977
vt 0.185123 5.687771
vt 0.152936 4.835996
vt 0.888811 4.792745
vt 1.243964 6.162431
vt 6.400873 5.721978
vt 6.217091 4.694863
vt 7.846589 4.384442
vt 8.037572 5.911612
vt 9.436024 0.001996
vt 9.555555 1.653851
vt 7.821352 1.649161
vt 7.974825 0.076851
vt 6.286214 3.177096
vt 6.217091 1.646188
vt 7.889088 3.360694
vt 0.101110 3.029594
vt 0.067352 1.401174
vt 0.920827 1.825355
vt 1.258486 2.936952
vt 9.165156 5.965328
vt 9.074565 7.351791
vt 7.886329 7.373956
vt 7.875098 5.948469
vt 6.217091 7.519217
vt 6.545539 5.915603
vt 6.019386 0.151637
vt 6.213100 1.666366
vt 4.657975 1.604574
vt 4.677184 0.066545
vt 4.366952 7.338849
vt 5.371552 7.672896
vt 5.056589 8.627426
vt 4.388059 8.936150
vt 3.289509 5.879150
vt 3.099005 4.556161
vt 4.470625 4.704849
vt 4.459514 5.943243
vt 6.136921 3.192727
vt 6.213100 4.725677
vt 4.598134 2.942423
vt 3.099607 3.332967
vt 9.057614 8.969069
vt 9.165156 10.778155
vt 8.159963 10.505318
vt 7.739185 9.107727
vt 2.879032 7.753747
vt 2.879032 6.521211
vt 3.940020 5.947235
vt 5.200774 5.986109
vt 6.789287 9.014027
vt 6.942947 10.730822
vt 2.879032 1.411822
vt 3.280676 0.001996
vt 8.984549 3.169653
vt 9.098898 4.871390
vt 8.984738 5.791307
vt 2.819631 3.432111
vt 2.506318 4.623047
vt 8.885912 11.597249
vt 7.981192 11.695670
vt 7.285162 11.598333
vt 2.436943 5.962213
vt 2.875040 0.041421
vt 2.869208 1.500480
vt 1.275864 0.001996
vt 0.001996 0.001996
vt 6.411516 0.125838
vt 3.463568 8.787008
vt 5.639051 5.587798
s 0
f 4/1/1 27/2/1 33/3/1 20/4/1
f 6/5/2 29/6/2 32/7/2 22/8/2
f 7/9/3 35/10/3 41/11/3 21/12/3
f 12/13/4 36/14/4 41/11/4 23/15/4
f 10/16/5 34/17/5 40/18/5 24/19/5
f 3/20/6 34/21/6 38/22/6 13/23/6
f 38/22/7 35/24/7 7/25/7 13/23/7
f 5/26/8 36/27/8 39/28/8 15/29/8
f 25/30/9 22/31/9 8/32/9 14/33/9
f 2/34/10 26/35/10 30/36/10 16/37/10
f 12/38/11 29/39/11 30/36/11 17/40/11
f 30/36/12 26/35/12 9/41/12 17/40/12
f 10/42/13 27/43/13 31/44/13 18/45/13
f 25/30/14 20/46/14 2/47/14 16/48/14
f 22/31/15 25/30/15 16/48/15 6/49/15
f 11/50/16 35/24/16 38/22/16 18/45/16
f 31/44/17 28/51/17 11/50/17 18/45/17
f 39/28/18 37/52/18 1/53/18 15/29/18
f 11/54/19 28/55/19 32/7/19 23/15/19
f 28/55/20 8/56/20 22/8/20 32/7/20
f 35/10/21 11/54/21 23/15/21 41/11/21
f 9/57/22 26/58/22 33/3/22 24/19/22
f 34/21/23 10/42/23 18/45/23 38/22/23
f 27/43/24 4/59/24 14/60/24 31/44/24
f 8/61/25 28/51/25 31/44/25 14/60/25
f 32/7/26 29/6/26 12/13/26 23/15/26
f 33/3/27 27/2/27 10/16/27 24/19/27
f 26/58/28 2/62/28 20/4/28 33/3/28
f 1/63/29 37/64/29 40/18/29 19/65/29
f 37/64/30 9/57/30 24/19/30 40/18/30
f 36/27/31 12/38/31 17/40/31 39/28/31
f 9/41/32 37/52/32 39/28/32 17/40/32
f 40/18/33 34/17/33 3/66/33 19/65/33
f 41/11/34 36/14/34 5/67/34 21/12/34
f 4/68/35 20/46/35 25/30/35 14/33/35
f 29/39/36 6/69/36 16/37/36 30/36/36
