# Blender 4.1.0
# www.blender.org
mtllib Pool.mtl
o Plane.001
v -20.000000 -4.675133 24.993843
v 20.000000 -4.675133 24.993843
v -20.000000 0.000000 -20.000000
v 20.000000 0.000000 -20.000000
v 20.000000 0.000000 0.000000
v 0.000000 -4.675133 24.993843
v 0.000000 0.000000 -20.000000
v 0.000000 0.000000 0.000000
v -20.000000 -2.500000 10.000000
v 0.000000 -2.500000 10.000000
v 20.000000 -2.500000 10.000000
v 0.000000 0.000000 10.000000
v -20.000000 0.000000 24.993843
v 20.000000 0.000000 24.993843
v -20.000000 0.000000 0.000000
v 0.000000 0.000000 24.993843
v -20.000000 0.000000 10.000000
v 20.000000 0.000000 10.000000
v -20.000000 0.000000 30.000000
v 20.000000 0.000000 30.000000
v 0.000000 0.000000 30.000000
v -20.000000 0.000000 -70.000000
v 20.000000 0.000000 -70.000000
v 0.000000 0.000000 -70.000000
v 30.000000 0.000000 -20.000000
v 30.000000 0.000000 0.000000
v 30.000000 0.000000 10.000000
v 30.000000 0.000000 24.993843
v 30.000000 0.000000 30.000000
v 30.000000 0.000000 -70.000000
v -70.000000 0.000000 -20.000000
v -70.000000 0.000000 0.000000
v -70.000000 0.000000 24.993843
v -70.000000 0.000000 10.000000
v -70.000000 0.000000 30.000000
v -70.000000 0.000000 -70.000000
v 20.000000 -4.675133 15.203213
v 20.000000 0.000000 15.203213
v 30.000000 0.000000 15.203213
v -20.000000 -4.675133 15.203213
v 0.000000 -4.675133 15.203213
v -20.000000 0.000000 15.203213
v -70.000000 0.000000 15.203213
v -24.997726 0.000000 10.000000
v -24.997726 0.000000 -20.000000
v -24.997726 0.000000 30.000000
v -24.997726 0.000000 24.993843
v -24.997726 0.000000 -70.000000
v -24.997726 0.000000 15.203213
v -40.999550 0.000000 -20.000000
v -40.999550 0.000000 24.993843
v -40.999550 0.000000 -70.000000
v -40.999550 0.000000 15.203213
v -40.999550 0.000000 0.000000
v -40.999546 0.000000 10.000000
v -40.999546 0.000000 30.000000
v -40.999546 -4.675133 10.000000
v -24.997726 -4.675133 10.000000
v -24.997726 -4.675133 15.203213
v -24.997726 -4.675133 24.993843
v -24.997726 0.000000 0.000000
v -40.999546 -4.675133 24.993843
v -40.999546 -4.675133 15.203213
v -25.035376 -0.932556 22.268433
v -19.948891 -0.932556 22.268433
v -25.035376 -1.005684 22.282978
v -19.948891 -1.005684 22.282978
v -25.035376 -1.067680 22.324402
v -19.948891 -1.067680 22.324402
v -25.035376 -1.109104 22.386398
v -19.948891 -1.109104 22.386398
v -25.035376 -1.123650 22.459526
v -19.948891 -1.123650 22.459526
v -25.035376 -1.109104 22.532654
v -19.948891 -1.109104 22.532654
v -25.035376 -1.067680 22.594646
v -19.948891 -1.067680 22.594646
v -25.035376 -1.005684 22.636074
v -19.948891 -1.005684 22.636074
v -25.035376 -0.932556 22.650620
v -19.948891 -0.932556 22.650620
v -25.035376 -0.859427 22.636074
v -19.948891 -0.859427 22.636074
v -25.035376 -0.797432 22.594646
v -19.948891 -0.797432 22.594646
v -25.035376 -0.756008 22.532654
v -19.948891 -0.756008 22.532654
v -25.035376 -0.741462 22.459526
v -19.948891 -0.741462 22.459526
v -25.035376 -0.756008 22.386398
v -19.948891 -0.756008 22.386398
v -25.035376 -0.797432 22.324402
v -19.948891 -0.797432 22.324402
v -25.035376 -0.859427 22.282978
v -19.948891 -0.859427 22.282978
vn -0.0000 1.0000 -0.0000
vn -0.0000 0.9701 0.2425
vn -0.0000 0.9226 0.3857
vn -0.0000 -0.0000 1.0000
vn -1.0000 -0.0000 -0.0000
vn -0.0000 -0.0000 -1.0000
vn 1.0000 -0.0000 -0.0000
vn -0.0000 0.9059 0.4235
vn -0.0000 -0.1950 -0.9808
vn -0.0000 -0.5556 -0.8315
vn -0.0000 -0.8315 -0.5555
vn -0.0000 -0.9808 -0.1951
vn -0.0000 -0.9808 0.1951
vn -0.0000 -0.8315 0.5556
vn -0.0000 -0.5556 0.8315
vn -0.0000 -0.1951 0.9808
vn -0.0000 0.1951 0.9808
vn -0.0000 0.5556 0.8315
vn -0.0000 0.8315 0.5556
vn -0.0000 0.9808 0.1951
vn -0.0000 0.9808 -0.1951
vn -0.0000 0.8315 -0.5555
vn -0.0000 0.5556 -0.8315
vn -0.0000 0.1950 -0.9808
vt 20.000000 27.500000
vt 30.000000 27.500000
vt 30.000000 37.500000
vt 20.000000 37.500000
vt 20.000000 22.500000
vt 30.000000 22.500000
vt 0.000683 7.493873
vt 9.996003 7.493873
vt 9.996003 12.491531
vt 0.000683 12.491531
vt 10.000000 27.500000
vt 10.000000 37.500000
vt 0.000683 4.893483
vt 9.996003 4.893483
vt 19.991323 4.893483
vt 19.991323 7.493873
vt 0.999656 9.999646
vt -0.250255 9.999646
vt -0.250256 0.000353
vt 0.999656 0.000353
vt 0.000250 0.000250
vt 1.250125 4.999750
vt 0.000250 4.999750
vt 2.382737 0.000691
vt 2.382737 10.000001
vt 0.000691 10.000001
vt 0.000690 0.000691
vt -2.313351 4.897195
vt -2.402685 0.000423
vt -0.019764 0.000426
vt -0.019766 4.897195
vt -2.292548 7.604365
vt -1.249442 5.002345
vt 0.000756 5.002345
vt 0.000757 7.604365
vt 2.382738 19.999311
vt 0.000691 19.999311
vt 0.000756 0.001550
vt 20.000000 15.003078
vt 10.000000 15.003078
vt 10.000000 12.500000
vt 20.000000 12.500000
vt 30.000000 15.003078
vt 30.000000 12.500000
vt 30.000000 62.500000
vt 20.000000 62.500000
vt 10.000000 62.500000
vt 35.000000 12.500000
vt 35.000000 15.003078
vt 35.000000 37.500000
vt 35.000000 62.500000
vt 35.000000 27.500000
vt 30.000000 19.898394
vt 35.000000 19.898394
vt 35.000000 22.500000
vt -0.499774 22.500000
vt -0.499774 27.500000
vt -15.000000 27.500000
vt -15.000000 22.500000
vt -0.499774 37.500000
vt -15.000000 37.500000
vt -0.499774 12.500000
vt -0.499774 15.003078
vt -15.000000 15.003078
vt -15.000000 12.500000
vt -0.499774 62.500000
vt -15.000000 62.500000
vt -0.499774 19.898392
vt -15.000000 19.898394
vt -1.270139 7.499577
vt -0.019767 7.499578
vt 9.996003 0.000458
vt 19.991323 0.000458
vt -2.381832 12.500458
vt 0.000758 12.500458
vt 0.000683 0.000458
vt 10.000000 19.898394
vt 7.501136 19.898392
vt 7.501136 15.003078
vt 10.000000 22.500000
vt 7.501136 22.500000
vt 7.501136 62.500000
vt 7.501136 37.500000
vt 7.501136 12.500000
vt 7.501136 27.500000
vt 2.003719 0.000541
vt 2.003719 5.001340
vt -0.334221 5.001340
vt 0.000542 12.498933
vt 0.000542 7.603042
vt 2.338383 7.603042
vt 2.338383 12.498933
vt 2.003720 7.603362
vt 2.003720 12.499459
vt -0.334220 12.499459
vt -0.334220 7.603362
vt 0.000433 7.999568
vt 0.000433 0.000433
vt 2.337480 0.000432
vt 2.337481 7.999566
vt 0.000541 5.001129
vt 0.000541 0.000541
vt 2.338383 5.001129
vt 1.000000 0.500000
vt 1.000000 1.000000
vt 0.937500 1.000000
vt 0.937500 0.500000
vt 0.875000 1.000000
vt 0.875000 0.500000
vt 0.812500 1.000000
vt 0.812500 0.500000
vt 0.750000 1.000000
vt 0.750000 0.500000
vt 0.687500 1.000000
vt 0.687500 0.500000
vt 0.625000 1.000000
vt 0.625000 0.500000
vt 0.562500 1.000000
vt 0.562500 0.500000
vt 0.500000 1.000000
vt 0.500000 0.500000
vt 0.437500 1.000000
vt 0.437500 0.500000
vt 0.375000 1.000000
vt 0.375000 0.500000
vt 0.312500 1.000000
vt 0.312500 0.500000
vt 0.250000 1.000000
vt 0.250000 0.500000
vt 0.187500 1.000000
vt 0.187500 0.500000
vt 0.125000 1.000000
vt 0.125000 0.500000
vt 0.341844 0.471731
vt 0.250000 0.489999
vt 0.158156 0.471731
vt 0.080294 0.419705
vt 0.028269 0.341844
vt 0.010000 0.249999
vt 0.028269 0.158154
vt 0.080294 0.080294
vt 0.158156 0.028268
vt 0.250000 0.010000
vt 0.341844 0.028268
vt 0.419706 0.080294
vt 0.471731 0.158154
vt 0.490000 0.249999
vt 0.471731 0.341844
vt 0.419706 0.419705
vt 0.062500 1.000000
vt 0.062500 0.500000
vt 0.000000 1.000000
vt 0.000000 0.500000
vt 0.750000 0.489999
vt 0.841844 0.471731
vt 0.919706 0.419705
vt 0.971731 0.341844
vt 0.990000 0.249999
vt 0.971731 0.158154
vt 0.919706 0.080294
vt 0.841844 0.028268
vt 0.750000 0.010000
vt 0.658156 0.028268
vt 0.580294 0.080294
vt 0.528269 0.158154
vt 0.510000 0.249999
vt 0.528269 0.341844
vt 0.580294 0.419705
vt 0.658156 0.471731
s 0
usemtl Checker
f 8/1/1 5/2/1 4/3/1 7/4/1
f 12/5/1 18/6/1 5/2/1 8/1/1
f 9/7/2 10/8/2 8/9/2 15/10/2
f 15/11/1 8/1/1 7/4/1 3/12/1
f 40/13/3 41/14/3 10/8/3 9/7/3
f 41/14/3 37/15/3 11/16/3 10/8/3
f 12/17/4 10/18/4 11/19/4 18/20/4
f 8/21/5 10/22/5 12/23/5
f 2/24/6 6/25/6 16/26/6 14/27/6
f 37/28/5 2/29/5 14/30/5 38/31/5
f 40/32/7 9/33/7 17/34/7 42/35/7
f 6/25/6 1/36/6 13/37/6 16/26/6
f 9/33/7 15/38/7 17/34/7
f 16/39/1 13/40/1 19/41/1 21/42/1
f 14/43/1 16/39/1 21/42/1 20/44/1
f 7/4/1 4/3/1 23/45/1 24/46/1
f 3/12/1 7/4/1 24/46/1 22/47/1
f 14/43/1 20/44/1 29/48/1 28/49/1
f 23/45/1 4/3/1 25/50/1 30/51/1
f 4/3/1 5/2/1 26/52/1 25/50/1
f 38/53/1 14/43/1 28/49/1 39/54/1
f 5/2/1 18/6/1 27/55/1 26/52/1
f 55/56/1 54/57/1 32/58/1 34/59/1
f 54/57/1 50/60/1 31/61/1 32/58/1
f 56/62/1 51/63/1 33/64/1 35/65/1
f 50/60/1 52/66/1 36/67/1 31/61/1
f 53/68/1 55/56/1 34/59/1 43/69/1
f 18/6/1 38/53/1 39/54/1 27/55/1
f 11/70/5 37/28/5 38/31/5 18/71/5
f 6/72/1 2/73/1 37/15/1 41/14/1
f 51/63/1 53/68/1 43/69/1 33/64/1
f 1/74/7 40/32/7 42/35/7 13/75/7
f 1/76/1 6/72/1 41/14/1 40/13/1
f 13/40/1 42/77/1 49/78/1 47/79/1
f 42/77/1 17/80/1 44/81/1 49/78/1
f 3/12/1 22/47/1 48/82/1 45/83/1
f 19/41/1 13/40/1 47/79/1 46/84/1
f 15/11/1 3/12/1 45/83/1 61/85/1
f 17/80/1 15/11/1 61/85/1 44/81/1
f 54/86/7 55/87/7 57/88/7
f 47/89/5 49/90/5 59/91/5 60/92/5
f 45/83/1 48/82/1 52/66/1 50/60/1
f 46/84/1 47/79/1 51/63/1 56/62/1
f 61/85/1 45/83/1 50/60/1 54/57/1
f 53/93/7 51/94/7 62/95/7 63/96/7
f 60/79/1 59/78/1 63/68/1 62/63/1
f 59/78/1 58/81/1 57/56/1 63/68/1
f 58/81/8 61/85/8 54/57/8 57/56/8
f 51/97/6 47/98/6 60/99/6 62/100/6
f 44/101/5 61/102/5 58/103/5
f 55/87/7 53/93/7 63/96/7 57/88/7
f 49/90/5 44/101/5 58/103/5 59/91/5
f 64/104/9 65/105/9 67/106/9 66/107/9
f 66/107/10 67/106/10 69/108/10 68/109/10
f 68/109/11 69/108/11 71/110/11 70/111/11
f 70/111/12 71/110/12 73/112/12 72/113/12
f 72/113/13 73/112/13 75/114/13 74/115/13
f 74/115/14 75/114/14 77/116/14 76/117/14
f 76/117/15 77/116/15 79/118/15 78/119/15
f 78/119/16 79/118/16 81/120/16 80/121/16
f 80/121/17 81/120/17 83/122/17 82/123/17
f 82/123/18 83/122/18 85/124/18 84/125/18
f 84/125/19 85/124/19 87/126/19 86/127/19
f 86/127/20 87/126/20 89/128/20 88/129/20
f 88/129/21 89/128/21 91/130/21 90/131/21
f 90/131/22 91/130/22 93/132/22 92/133/22
f 67/134/7 65/135/7 95/136/7 93/137/7 91/138/7 89/139/7 87/140/7 85/141/7 83/142/7 81/143/7 79/144/7 77/145/7 75/146/7 73/147/7 71/148/7 69/149/7
f 92/133/23 93/132/23 95/150/23 94/151/23
f 94/151/24 95/150/24 65/152/24 64/153/24
f 64/154/5 66/155/5 68/156/5 70/157/5 72/158/5 74/159/5 76/160/5 78/161/5 80/162/5 82/163/5 84/164/5 86/165/5 88/166/5 90/167/5 92/168/5 94/169/5
